<?xml version="1.0" encoding="utf-8"?>
<!-- Generator: Adobe Illustrator 19.1.0, SVG Export Plug-In . SVG Version: 6.00 Build 0)  -->
<svg version="1.1" id="Layer_1" xmlns="http://www.w3.org/2000/svg" xmlns:xlink="http://www.w3.org/1999/xlink" x="0px" y="0px"
	 viewBox="0 0 80.3 80.3" style="enable-background:new 0 0 80.3 80.3;" xml:space="preserve">
<style type="text/css">
	.st0{fill:#49FFAD;}
</style>
<g>
	<path class="st0" d="M40.2,0C18,0,0,18,0,40.2c0,22.2,18,40.2,40.2,40.2c22.2,0,40.2-18,40.2-40.2C80.3,18,62.4,0,40.2,0z
		 M40.2,71.3C23,71.3,9,57.4,9,40.2S23,9,40.2,9s31.2,14,31.2,31.2S57.4,71.3,40.2,71.3z"/>
	<polygon class="st0" points="58.7,29.8 58.7,20.8 40.2,36.3 21.7,20.8 21.7,29.8 34.8,40.8 21.7,51.8 21.7,60.8 40.2,45.3 
		58.7,60.8 58.7,51.8 45.5,40.8 	"/>
	<polygon class="st0" points="21.7,33.7 11.7,40.2 21.7,48.3 	"/>
	<polygon class="st0" points="58.7,33.7 58.7,48.3 68.7,40.2 	"/>
</g>
</svg>
