<?xml version="1.0" encoding="utf-8"?>
<!-- Generator: Adobe Illustrator 19.1.0, SVG Export Plug-In . SVG Version: 6.00 Build 0)  -->
<svg version="1.1" id="Layer_1" xmlns="http://www.w3.org/2000/svg" xmlns:xlink="http://www.w3.org/1999/xlink" x="0px" y="0px"
	 viewBox="328 530 686.6 70.9" style="enable-background:new 328 530 686.6 70.9;" xml:space="preserve">
<style type="text/css">
	.st0{enable-background:new    ;}
	.st1{fill:#22B573;}
	.st2{fill:#4B4646;}
	.st3{fill:#939090;}
	.st4{fill:#6F6B6B;}
</style>
<g id="Layer1">
	<g class="st0">
		<path class="st1" d="M463.9,591.7c-6,5.4-13.5,8.2-22.2,8.2c-20.1,0-34.8-15.4-34.8-34.1c0-18.8,14.5-34.2,34.6-34.2
			c9.8,0,17.4,4,22.3,8.5l-3.5,4.5c-3.9-4-10-7.3-19.5-7.3c-15.4,0-27.3,11.8-27.3,28.9c0,15.8,12.8,28,28.3,28
			c8.4,0,15.1-2.9,19.1-6.8L463.9,591.7z"/>
		<path class="st1" d="M506.7,599.9c-19.6,0-35-15.2-35-34.1c0-18.9,15.4-34.2,35-34.2c19.4,0,34.7,14.5,34.7,34.4
			C541.4,584.9,525.7,599.9,506.7,599.9z M506.7,537.4c-15.8,0-28.4,12-28.4,28.1c0,15.2,12.4,28.7,27.8,28.7
			c16.2,0,28.7-12.2,28.7-28.3C534.8,549.5,522.2,537.4,506.7,537.4z"/>
		<path class="st1" d="M562.8,547.3l0.1,51.3h-6.3v-67.4L607,585v-52.1h6.3l-0.1,68.1L562.8,547.3z"/>
		<path class="st1" d="M644.6,598.7v-60.2h-19.1V533H670v5.5h-19.1v60.2H644.6z"/>
		<path class="st1" d="M682.3,598.6V533h34.2v5.5h-27.9v22.1H711v5.6h-22.4V593h30.7v5.5L682.3,598.6L682.3,598.6z"/>
		<path class="st1" d="M770,598.7l-18.6-28.6l-18.9,28.6h-7.5l23.1-34L726.8,533h7.5l17.4,26.7l17.4-26.7h7.5L755,564.8l22.5,34H770
			z"/>
		<path class="st1" d="M801.5,598.7v-60.2h-19.1V533h44.5v5.5h-19.1v60.2H801.5z"/>
	</g>
	<g class="st0">
		<path class="st2" d="M686.6,598.6V533h34.2v5.5h-27.9v22.1h22.4v5.7h-22.4v26.7h30.7v5.5H686.6z"/>
		<path class="st2" d="M774.3,598.7l-18.6-28.6l-18.9,28.6h-7.5l23.1-34L731.1,533h7.5l17.4,26.7l17.4-26.7h7.5l-21.7,31.8l22.5,34
			H774.3z"/>
		<path class="st2" d="M805.8,598.7v-60.2h-19.1V533h44.5v5.5h-19.1v60.2H805.8z"/>
		<path class="st2" d="M884.1,598.7l-7.7-17.6h-32.2l-7.8,17.6h-6.8l30.8-67.8l30.5,67.8H884.1z M861.9,548.4
			c-0.5-1.1-1.4-3.2-1.5-4c-0.3,0.8-1.1,2.9-1.5,4l-12,27.1H874L861.9,548.4z"/>
		<path class="st2" d="M907.3,547.3l0.1,51.3h-6.3v-67.4l50.4,53.7v-52.1h6.3l-0.1,68.1L907.3,547.3z"/>
		<path class="st2" d="M989.2,598.7v-60.2h-19.1V533h44.5v5.5h-19.1v60.2H989.2z"/>
	</g>
</g>
<g>
	<path class="st3" d="M363,530c-0.9,0-1.7,0-2.6,0.1c15.5,1.3,27.6,14.2,27.6,29.9c0,16.6-13.4,30-30,30
		c-15.8,0-28.7-12.1-29.9-27.6c-0.1,0.9-0.1,1.8-0.1,2.6c0,19.3,15.7,35,35,35s35-15.7,35-35S382.3,530,363,530z"/>
	<path class="st4" d="M357,535c-13.8,0-25,11.2-25,25c0,0.9,0.1,1.8,0.1,2.7c1.2-10,9.6-17.7,19.9-17.7c11,0,20,9,20,20
		c0,10.3-7.7,18.7-17.7,19.9c0.9,0.1,1.8,0.1,2.7,0.1c13.8,0,25-11.2,25-25S370.8,535,357,535z"/>
	<path class="st2" d="M347,571c0-5.5,4.5-10,10-10c4.7,0,8.7,3.3,9.7,7.8c0.2-0.9,0.3-1.8,0.3-2.8c0-8.3-6.7-15-15-15s-15,6.7-15,15
		s6.7,15,15,15c0.9,0,1.9-0.1,2.8-0.3C350.3,579.7,347,575.8,347,571z"/>
</g>
<path class="st1" d="M357,566.3c-2.8,0-5,2.2-5,5c0,4,4.5,5.9,5,10.3c0.4-4.4,5-6.6,5-10.3C362,568.6,359.8,566.3,357,566.3z
	 M357,573.5c-1.3,0-2.4-1.1-2.4-2.4c0-1.3,1.1-2.4,2.4-2.4s2.4,1.1,2.4,2.4C359.4,572.4,358.3,573.5,357,573.5z"/>
</svg>
