<?xml version="1.0" encoding="utf-8"?>
<!-- Generator: Adobe Illustrator 19.1.0, SVG Export Plug-In . SVG Version: 6.00 Build 0)  -->
<svg version="1.1" id="Layer_1" xmlns="http://www.w3.org/2000/svg" xmlns:xlink="http://www.w3.org/1999/xlink" x="0px" y="0px"
	 viewBox="0 0 579.1 72.8" style="enable-background:new 0 0 579.1 72.8;" xml:space="preserve">
<style type="text/css">
	.st0{fill:#22B573;stroke:#E6E6E6;stroke-miterlimit:10;}
	.st1{fill:#4B4646;stroke:#E6E6E6;stroke-miterlimit:10;}
	.st2{fill:#939090;}
	.st3{fill:#6F6B6B;}
	.st4{fill:#4B4646;}
	.st5{fill:#22B573;}
</style>
<g>
	<g>
		<path class="st0" d="M83,39.8C82.4,23.7,94.1,11.6,109.5,11c9.2-0.3,16.6,3.2,21.7,9.4l-3.9,3c-4.3-5.1-10.1-8-17.7-7.7
			C97,16.2,88,26.4,88.4,39.6c0.5,13.4,10.3,22.8,23.2,22.3c7.8-0.3,14-3.8,18.2-9.7l4.2,2.7c-5.1,7.2-12.6,11.3-22.3,11.7
			C96,67.2,83.5,56,83,39.8z"/>
		<path class="st0" d="M138,37.9c-0.6-16.1,11.5-28.3,26.9-28.8c15.4-0.5,28.3,10.8,28.9,26.8c0.6,16.1-11.5,28.3-26.9,28.8
			C151.4,65.3,138.5,54,138,37.9z M188.4,36.1c-0.5-13.2-10.3-22.8-23.3-22.3c-13,0.5-22.1,10.7-21.7,23.9
			c0.5,13.2,10.3,22.8,23.3,22.3C179.6,59.6,188.8,49.3,188.4,36.1z"/>
		<path class="st0" d="M208.4,19.8l1.5,42.8l-4.9,0.2l-1.9-55.5l0.5,0l38.2,42.6l-1.5-42.8l4.9-0.2l1.9,55.5l-0.5,0L208.4,19.8z"/>
		<path class="st0" d="M271.1,10.7l-16.9,0.6l-0.2-4.6l38.9-1.4l0.2,4.6l-16.8,0.6l1.7,49.7l-5.2,0.2L271.1,10.7z"/>
		<path class="st0" d="M301.9,5l32.8-1.1l0.2,4.6l-27.6,1l0.9,27.2l24.6-0.9l0.2,4.6l-24.6,0.9l0.5,13.4l28.7-1l0.2,4.6l-33.9,1.2
			L301.9,5z"/>
		<path class="st0" d="M345.8,3.4l5.9-0.2l13.7,19.9l12.3-20.8l5.6-0.2l-15,25.2l20.1,29.1l-5.9,0.2l-17-24.5
			c0-0.1-15.3,25.7-15.3,25.7l-5.6,0.2c0,0,17.9-30.2,17.9-30.1L345.8,3.4z"/>
		<path class="st0" d="M407,5.9l-16.9,0.6L390,1.9l38.9-1.4l0.2,4.6l-16.8,0.6l1.7,49.7l-5.2,0.2L407,5.9z"/>
	</g>
	<g>
		<path class="st1" d="M308.6,4.2l32.8,0.6l-0.1,4.6l-27.6-0.5l-0.5,27.2l24.6,0.4l-0.1,4.6l-24.6-0.4L312.9,54l28.7,0.5l-0.1,4.6
			l-33.9-0.6L308.6,4.2z"/>
		<path class="st1" d="M352.5,5l5.9,0.1l12.7,20.5l13.4-20.1l5.6,0.1L373.8,30l18.6,30.1l-5.9-0.1l-15.7-25.4
			c0-0.1-16.6,24.8-16.6,24.8l-5.6-0.1c0,0,19.5-29.2,19.5-29.1L352.5,5z"/>
		<path class="st1" d="M413.5,10.7l-16.9-0.3l0.1-4.6l38.9,0.7l-0.1,4.6l-16.8-0.3l-0.9,49.8l-5.2-0.1L413.5,10.7z"/>
		<path class="st1" d="M437.4,60.9l-5.2-0.1l23.8-55.3l0.4,0l22,56.1l-5.4-0.1l-3.6-9.5l-28.1-0.5L437.4,60.9z M456.1,16.9
			l-12.8,29.9l24.3,0.4C467.7,47.3,456.1,16.9,456.1,16.9z"/>
		<path class="st1" d="M493.4,19l-0.7,42.8l-4.9-0.1l1-55.5l0.5,0l35.9,44.6L525.9,8l4.9,0.1l-1,55.5l-0.5,0L493.4,19z"/>
		<path class="st1" d="M556.5,13.2l-16.9-0.3l0.1-4.6l38.9,0.7l-0.1,4.6l-16.8-0.3L560.8,63l-5.2-0.1L556.5,13.2z"/>
	</g>
</g>
<g>
	<path class="st2" d="M35,2.8c-0.9,0-1.7,0-2.6,0.1C47.9,4.2,60,17.1,60,32.8c0,16.6-13.4,30-30,30c-15.8,0-28.7-12.1-29.9-27.6
		C0,36.1,0,37,0,37.8c0,19.3,15.7,35,35,35s35-15.7,35-35C70,18.5,54.3,2.8,35,2.8z"/>
	<path class="st3" d="M29,7.8C15.2,7.8,4,19,4,32.8c0,0.9,0.1,1.8,0.1,2.7c1.2-10,9.6-17.7,19.9-17.7c11,0,20,9,20,20
		c0,10.3-7.7,18.7-17.7,19.9c0.9,0.1,1.8,0.1,2.7,0.1c13.8,0,25-11.2,25-25S42.8,7.8,29,7.8z"/>
	<path class="st4" d="M19,43.8c0-5.5,4.5-10,10-10c4.7,0,8.7,3.3,9.7,7.8c0.2-0.9,0.3-1.8,0.3-2.8c0-8.3-6.7-15-15-15s-15,6.7-15,15
		c0,8.3,6.7,15,15,15c0.9,0,1.9-0.1,2.8-0.3C22.3,52.5,19,48.6,19,43.8z"/>
</g>
<path class="st5" d="M29,39.1c-2.8,0-5,2.2-5,5c0,4,4.5,5.9,5,10.3c0.4-4.4,5-6.6,5-10.3C34,41.4,31.8,39.1,29,39.1z M29,46.3
	c-1.3,0-2.4-1.1-2.4-2.4s1.1-2.4,2.4-2.4s2.4,1.1,2.4,2.4S30.3,46.3,29,46.3z"/>
</svg>
