<?xml version="1.0" encoding="utf-8"?>
<!-- Generator: Adobe Illustrator 19.1.0, SVG Export Plug-In . SVG Version: 6.00 Build 0)  -->
<svg version="1.1" id="Layer_1" xmlns="http://www.w3.org/2000/svg" xmlns:xlink="http://www.w3.org/1999/xlink" x="0px" y="0px"
	 viewBox="0 0 128.8 110.9" style="enable-background:new 0 0 128.8 110.9;" xml:space="preserve">
<style type="text/css">
	.st0{fill:#49FFAD;}
</style>
<circle class="st0" cx="88.2" cy="88.9" r="9"/>
<circle class="st0" cx="104.5" cy="72.9" r="8.5"/>
<circle class="st0" cx="120.8" cy="56.6" r="8"/>
<circle class="st0" cx="104.8" cy="39.5" r="7.5"/>
<circle class="st0" cx="88.1" cy="23.2" r="7"/>
<circle class="st0" cx="71.4" cy="39.9" r="7"/>
<circle class="st0" cx="54.7" cy="56.2" r="7"/>
<circle class="st0" cx="38.4" cy="39.5" r="6.5"/>
<circle class="st0" cx="55.1" cy="22.5" r="6.5"/>
<circle class="st0" cx="71.1" cy="6.5" r="6.5"/>
<circle class="st0" cx="38.4" cy="6.5" r="5.5"/>
<circle class="st0" cx="21.7" cy="23.2" r="5.5"/>
<circle class="st0" cx="5.3" cy="6.5" r="5"/>
<circle class="st0" cx="38.4" cy="72.9" r="5"/>
<circle class="st0" cx="55.1" cy="89.2" r="5"/>
<circle class="st0" cx="71.4" cy="105.9" r="5"/>
<circle class="st0" cx="38.7" cy="105.6" r="5"/>
<circle class="st0" cx="22" cy="89.6" r="5"/>
<circle class="st0" cx="5" cy="105.9" r="5"/>
<circle class="st0" cx="88.1" cy="55.5" r="7.5"/>
<circle class="st0" cx="71.4" cy="72.2" r="7.5"/>
</svg>
