<?xml version="1.0" encoding="utf-8"?>
<!-- Generator: Adobe Illustrator 19.1.0, SVG Export Plug-In . SVG Version: 6.00 Build 0)  -->
<svg version="1.1" xmlns="http://www.w3.org/2000/svg" xmlns:xlink="http://www.w3.org/1999/xlink" x="0px" y="0px"
	 viewBox="0 0 1540 477.3" style="enable-background:new 0 0 1540 477.3;" xml:space="preserve">
<style type="text/css">
	.st0{fill:#49FFAD;}
	.st1{fill:#FAFAFA;}
	.st2{font-family:'SemplicitaPro-Bold';}
	.st3{font-size:128.25px;}
</style>
<g id="Layer_2">
</g>
<g id="Layer_1">
	<g>
		<path class="st0" d="M1285.5,151.9c-5.4-1.4-10.9-1.5-16.3-0.4c-5.7,1.1-9.5,4.7-11.3,10.1c-2.3,7.2-2,14.6-1.8,22.3
			c14,0,27.6,0,41.7,0c0.4-7,0.6-13.7-1-20.1C1295.4,157.8,1291.9,153.5,1285.5,151.9z"/>
		<path class="st0" d="M1405,135.1c-1.7,0-2.4,0.9-2.8,2.3c-0.6,2.1-1.2,4.1-1.7,6.2c-1.2,4.2-2.3,8.5-3.6,13.1c5.7,0,10.7,0,16.4,0
			c-2-6.9-3.7-13.1-5.5-19.3C1407.4,136.1,1406.7,135.1,1405,135.1z"/>
		<path class="st0" d="M461.2,161.9c-1.9-5.5-5.6-9-11.4-9.9c-3.3-0.5-6.6-0.9-9.9-0.7c-9.5,0.5-14.2,4.6-16.4,13.8
			c-0.3,1.1-0.5,2.3-0.6,3.4c-0.5,8-1,15.9-1.4,23.9c0.2,0,0.4,0,0.6,0c0,5-0.3,10,0.1,15c0.5,5.1,1.3,10.2,2.7,15.2
			c1.3,4.6,4.8,7.5,9.5,8.7c5.3,1.4,10.6,1.3,15.8,0.3c5.5-1.1,9.3-4.4,10.9-9.8c0.8-2.7,1.7-5.5,1.8-8.2c0.5-10.5,1-21,0.8-31.4
			C463.6,175.3,463.5,168.4,461.2,161.9z"/>
		<path class="st0" d="M1024.5,200.9c-4.6,1-7.9,3.9-8.9,8.4c-0.8,3.5-1.1,7.3-0.7,10.8c0.9,8,5.7,12.5,13.4,13.8
			c8.3,1.4,16.5,0.2,25-1.5c0-12.1,0-24,0-36.6c-2.8,0.4-5.3,0.7-7.7,1.1C1038.5,198.3,1031.5,199.5,1024.5,200.9z"/>
		<path class="st0" d="M0,0v300h1540V0H0z M45.9,170c0-15.2-0.1-30.3,0.1-45.5c0.2-17.5,4.5-33.9,14-48.8
			C72,57.1,89,45.8,110.6,41.2c9.2-2,18.5-2.2,27.8-2.1c6.6,0.1,13.3,0,20.4,0c-1.9,17.8-3.7,34.7-5.5,52c-3.2,0-6-0.1-8.8,0
			c-6.3,0.2-12.7,0.2-18.9,0.9c-15.8,1.8-24.4,12-26.5,27.3c-0.7,5.3-0.9,10.6-1,15.9c-0.1,11.5-0.1,23-0.1,34.5c0,1.6,0,3.3,0,5.1
			c-17.5,0-34.4,0-51.8,0C46.1,173.2,45.9,171.6,45.9,170z M185.9,178.8c-1.7,24.6-11.5,45.7-30.9,61.6
			c-12.6,10.3-27.1,16-43.2,17.9c-12.6,1.5-25.2,0.4-38.5,0.9c1.4-17.5,3.6-34.4,5.2-51.7c1.5-0.1,2.8-0.4,4-0.4
			c6.5-0.1,13,0.2,19.5-0.2c9.3-0.6,17.6-3.6,23.7-11.1c4.1-5,6.2-11,7.3-17.3c0.7-4.3,1-8.6,1.1-12.9c0.1-11.2,0.1-22.3,0.1-33.5
			c0-1.8,0-3.6,0-5.8c17.9,0,34.8,0,52,0c0.2,1.3,0.5,2.4,0.4,3.6C186.4,146.1,187,162.5,185.9,178.8z M356.6,230.9
			c-2.9,10.7-9.6,18.5-19.7,23.2c-8,3.7-16.4,5.4-25.1,5.9c-3.2,0.2-6.3,0-9.5,0c-14.4,0.1-28.5-1.9-42.4-5.8
			c-5.6-1.6-6-2.3-5.1-8.1c0.8-4.9,1.5-9.9,2.4-14.8c0.7-4.1,1.7-4.6,5.8-3.6c11.7,2.8,23.4,5.5,35.5,5.1c3.4-0.1,6.9-1,10.1-2.2
			c4.8-1.9,6.2-6.3,6.1-11c-0.1-5-2-9.2-7.2-10.7c-3.8-1.1-7.7-2-11.6-2.8c-6.9-1.4-13.7-2.7-20.1-5.7c-9.2-4.2-15.2-11.1-17.9-20.8
			c-2.6-9.3-2.7-18.8-0.3-28.1c3.6-13.8,13.1-21.5,26.4-25.4c11.7-3.4,23.7-3.8,35.7-2.8c8.9,0.7,17.8,2.5,26.6,3.8
			c1.6,0.3,3.2,0.8,4.8,1.3c2.2,0.7,3.4,2.2,3.1,4.5c-1,6.1-2,12.1-3.3,18.1c-0.4,2-2.5,2.7-5.4,2.3c-6.4-1-12.8-2.1-19.2-2.9
			c-5.8-0.7-11.6-0.9-17.4,0.6c-5.9,1.5-8.9,4.8-9.2,10.3c-0.3,5.2,2.3,9.8,7.7,11.5c5.7,1.8,11.6,2.7,17.5,4.1
			c3.9,0.9,7.8,1.8,11.5,3.1c10.3,3.8,17.5,10.8,20.3,21.7C359,211.4,359.1,221.2,356.6,230.9z M505.2,221.9
			c-4.2,18.9-15.8,30.6-34.5,35.4c-11.2,2.9-22.6,3.5-34.2,3c-9.7-0.4-19.2-1.7-28.3-5.2c-13.3-5.1-22-14.6-26.3-28.1
			c-2.3-7.2-3.4-14.6-3.8-22.1c-0.2-4.3,0-8.7,0-13c-0.3-11.5,0.2-23,3.5-34.1c4.8-16.2,15.4-26.5,31.6-31.1
			c16.3-4.7,32.9-4.7,49.5-2.3c6.8,1,13.3,2.8,19.5,6c12.7,6.6,20,17.3,23,31c1.3,6.2,2.1,12.5,2.5,18.8
			C508.5,194.2,508.3,208.1,505.2,221.9z M954,223.7c0,3.8-0.5,7.7-1.4,11.4c-3.2,13.4-12.5,20.5-25.3,23.2
			c-20.2,4.3-40.4,3.6-60.1-3.1c-3.5-1.2-6.9-2.6-10.1-4.3c-2.1-1.1-3.6-0.9-5.5,0.2c-14.4,8.8-30.3,10.4-46.7,9.3
			c-13.3-0.9-26.5-2.9-39.3-6.4c-2.5-0.7-5-1.7-7.4-2.8c-4.6-2-6.8-5.7-6.7-10.7c0-2.7,0-5.3,0-8c0-23.8,0-47.7,0-71.5
			c0-1.3-0.1-2.6-0.2-3.9c-3.7-1.1-55.7-1.4-63.9-0.4c-0.1,1.7-0.3,3.4-0.3,5.2c0,17.5,0,35,0,52.5c0,0.8,0,1.7,0,2.5
			c0.4,7.7,4.1,11.7,11.8,12.1c5.1,0.2,10.3-0.3,15.5-0.5c1.3-0.1,2.6-0.4,4-0.5c2.1-0.2,3.6,0.5,4.1,2.7c1.3,6.4,2.6,12.7,3.7,19.1
			c0.4,2.7-0.8,4.3-4.3,5.2c-5.8,1.4-11.7,2.8-17.6,3.5c-11.5,1.3-23,1.3-34.3-1.6c-13.6-3.5-21.8-12.3-24.5-26
			c-0.9-4.4-1.2-8.9-1.3-13.4c-0.1-18.7-0.1-37.3,0-56c0-1.6,0-3.3,0-5.2c-19.6,0-38.8,0-58.5,0c0,2.7,0,5.2,0,7.6
			c0,28.5,0,57,0,85.5c0,0.7,0,1.3,0,2c-0.1,5.2-0.5,5.7-5.8,5.8c-10.5,0.1-21,0-31.5,0c-5.7,0-6.2-0.5-6.2-6.4c0-29.7,0-59.3,0-89
			c0-1.7,0-3.3,0-5.8c-5.2,0-9.8,0-14.4,0c-1.3,0-2.7,0.1-4,0c-3-0.2-3.8-0.9-3.9-4c-0.1-7.2-0.1-14.3,0-21.5
			c0.1-3.6,0.9-4.4,4.5-4.5c5.7-0.1,11.3,0,17.6,0c0.1-2,0.2-3.7,0.2-5.5c0.3-6.6,0.1-13.3,0.9-19.9C545,82,556.8,72.7,573.4,70
			c14.9-2.4,29.6-0.7,44.1,2.5c5.6,1.2,6.2,2.3,5.4,8c-0.8,5.4-1.6,10.9-2.6,16.3c-0.7,3.9-0.8,3.8-5,3.5c-6.3-0.5-12.6-1-18.9-1.1
			c-2.2,0-4.7,0.7-6.5,1.9c-1.6,1.1-3.2,3.2-3.6,5c-1.4,6.4-0.8,12.9-0.6,19.6c19.5,0,38.6,0,58,0c0.1-1.3,0.3-2.6,0.3-3.8
			c0-9,0-18,0.1-27c0-5.7,1.1-7,6.6-8c9.5-1.7,19-3.4,28.5-5c6.7-1.1,7.8-0.1,7.8,6.9c0,10.5,0,21,0,31.5c0,1.6,0,3.3,0,5.5
			c1.9,0.1,3.5,0.2,5.1,0.2c31.8,0,63.7,0,95.5,0c0.8,0,1.7-0.1,2.5,0c3.4,0.2,4.4,1.1,4.6,4.6c0.1,1.3,0,2.7,0,4
			c0,30.5,0,61,0,91.5c0,1.8,0,3.6,0,5.6c8.4,1.9,16.4,2.8,24.6,2.2c6.7-0.5,10.8-4.9,11.6-12.2c0.3-2.6,0.2-5.3,0.2-8
			c0-26.5,0-53,0-79.5c0-8.1,0.1-8.2,8-8.2c9.7,0,19.3,0,29,0c5.7,0,6.2,0.5,6.2,6.4c0,31,0,62,0,93c0,2,0,4,0,6.1
			c7.4,2.1,14.6,3.1,21.9,2.4c8.9-0.8,13.7-6.1,14.5-15.5c0.2-1.8,0.1-3.7,0.1-5.5c0-26,0-52,0-78c0-0.7,0-1.3,0-2
			c0-6.5,0.3-6.9,6.7-6.9c10,0,20,0,30,0c5.8,0,6.5,0.6,6.5,6.2C954.1,162.7,954.1,193.2,954,223.7z M1096.4,228.8
			c0,2.7-0.2,5.3-0.3,8c-0.6,8.5-4.9,14.5-13,17.1c-6.6,2.1-13.4,3.9-20.3,4.9c-14.9,2.3-29.9,2.1-44.9,1
			c-7.6-0.5-15.2-1.9-22.3-4.9c-11-4.6-18.2-12.5-21-24.3c-2-8.3-2.1-16.5-0.4-24.8c2.6-12.4,10.3-20.5,22.3-23.9
			c7.8-2.2,15.9-3.5,23.9-4.9c9.3-1.6,18.7-2.9,28.1-4.4c1.6-0.3,3.2-0.8,5.3-1.3c-0.3-4.1-0.3-8.1-1-11.9c-0.7-4.3-4-6.4-8-7.2
			c-6.7-1.3-13.6-1.6-20.4-0.9c-11.1,1.2-22,3.3-32.8,6.2c-1.5,0.4-3.2,0.3-5.2,0.4c-1.6-7.2-3.1-14-4.7-20.8
			c-0.6-2.7,0.9-4.2,3.1-4.9c4.4-1.5,8.8-3,13.3-4.1c16-3.7,32.1-5.8,48.5-5.2c9.2,0.4,18.2,1.4,27,4.5c14,5.1,21.7,14.9,22.5,29.8
			c0.4,7,0.3,14,0.3,21C1096.5,195.2,1096.5,212,1096.4,228.8z M1204.1,148.2c0,5-0.9,5.7-5.8,6c-9,0.5-17.9,1.1-27.6,1.7
			c0,2.5,0,4.1,0,5.8c0,29,0,58,0,87c0,1.2,0,2.3,0,3.5c-0.2,4.2-1,5.1-5,5.1c-11.2,0.1-22.3,0.1-33.5,0c-3.9,0-4.6-0.9-4.8-4.7
			c-0.1-2.3,0-4.7,0-7c0-33,0-66,0-99c0-1.5,0-3,0.1-4.5c0.3-4,2.1-7.1,5.7-8.8c3.8-1.7,7.7-3.2,11.7-4.2c17.1-4.3,34.4-5.7,52-5.8
			c6,0,7.2,1.3,7.2,7.4C1204.1,136.6,1204.1,142.4,1204.1,148.2z M1339.9,200.4c-0.1,6.8-1.9,8.6-8.6,8.6c-23.2,0-46.3,0-69.5,0
			c-1.8,0-3.6,0-6,0c1,4.2,1.4,7.7,2.7,10.9c3.2,7.7,9.8,10.8,17.6,12.1c14.9,2.5,29.5,0.5,43.9-3.3c0.5-0.1,0.9-0.4,1.4-0.5
			c6.2-1.7,7.4-1.1,9.2,5.3c1,3.7,1.8,7.4,2.7,11.2c1.2,5.3,0.4,6.8-4.9,8.4c-5.7,1.7-11.5,3.5-17.3,4.6c-19.8,4-39.7,4.2-59.4-0.7
			c-19.7-4.9-32-17.4-36.9-37.2c-3.5-14.3-3.4-28.7-2.2-43.2c0.6-6.6,1.8-13.2,3.6-19.6c4.6-15.9,15-26.5,31.2-30.6
			c20.1-5.1,40.2-5,60.1,1c15.1,4.5,24.5,14.6,28.5,29.9c2.5,9.4,3.3,19,3.7,28.6C1340,190.7,1339.9,195.6,1339.9,200.4z
			 M1420.3,182.3c-1.5-5.5-3-10.7-4.4-16.1c-7.3,0-14.2,0-21.7,0c-1.5,5.2-2.9,10.4-4.5,15.9c-4.8,0-9.5,0-15,0
			c6.3-18.7,12.4-37.1,18.7-55.9c7.1,0,14.1,0,21.1,0c2.2,0,2.6,1.8,3.1,3.3c2.1,6.3,4.1,12.7,6.1,19c3,9.3,6,18.7,8.9,28.1
			c0.5,1.7,1,3.4,1.6,5.7C1429.1,182.3,1424.9,182.3,1420.3,182.3z M1494.1,174.4c0,5.2-1.3,6.8-6.5,7.7c-9.1,1.6-18.2,1.9-27.3,0
			c-8.8-1.8-14.1-7.2-15.8-15.9c-1.6-8.1-1.7-16.2,0.3-24.3c2.4-9.6,8.7-14.4,18.2-16.1c9.1-1.6,17.9-0.3,26.7,1.5
			c4.4,0.9,4.7,1.7,3.7,6.3c-0.2,0.9-0.5,1.9-0.8,3.4c-3.8-0.6-7-1.3-10.3-1.6c-4.3-0.3-8.7-0.6-12.9-0.1c-6.6,0.9-10,4.4-11.2,10.9
			c-1,5.6-1,11.3,0,16.9c1.3,7.1,5.1,10.4,12.3,10.8c3.3,0.2,6.6,0,10.5,0c0-2.6,0-4.7,0-6.8c0-2,0-3.9,0-6.1
			c-3.4-0.5-6.3-1-9.6-1.5c0-2.7,0-5.4,0-8.4c7.4,0,14.7,0,22.3,0c0.1,1,0.4,2.1,0.4,3.2C1494.1,161.1,1494.1,167.7,1494.1,174.4z"
			/>
	</g>
	<text transform="matrix(1 0 0 1 901.0657 436.959)" class="st1 st2 st3">PARTNER</text>
</g>
</svg>
